<?xml version="1.0" encoding="UTF-8"?>
<svg width="1024px" height="217px" viewBox="0 0 1024 217" version="1.1" xmlns="http://www.w3.org/2000/svg" xmlns:xlink="http://www.w3.org/1999/xlink">
    <!-- Generator: Sketch 46.2 (44496) - http://www.bohemiancoding.com/sketch -->
    <title>fandango copy</title>
    <desc>Created with Sketch.</desc>
    <defs></defs>
    <g id="Page-1" stroke="none" stroke-width="1" fill="none" fill-rule="evenodd">
        <g id="fandango-copy">
            <g id="Group" transform="translate(77.000000, 39.000000)">
                <path d="M812.741286,27.4231602 C787.289154,27.4231602 768.493733,45.0523347 768.493733,70.5166977 C768.493733,95.5893014 787.289154,113.218476 812.741286,113.218476 C838.193418,113.218476 856.988839,95.5893014 856.988839,70.5166977 C856.988839,45.0523347 838.193418,27.4231602 812.741286,27.4231602 Z M837.018704,72.0837355 C836.627133,77.9601269 834.277706,83.0529995 830.753564,87.3623533 C830.361993,87.7541127 829.970422,88.1458722 829.187279,88.5376316 C824.879995,92.4552259 819.006426,95.1975419 812.741286,95.1975419 C799.427863,95.1975419 788.463868,84.2282778 788.463868,70.9084572 C788.463868,57.196877 799.427863,46.6193724 812.741286,46.6193724 C825.663138,46.6193724 836.235562,56.8051176 837.018704,69.7331789 L837.018704,72.0837355 Z M720.330468,64.2485468 L720.330468,83.0529995 L739.125888,83.0529995 L739.125888,89.7129099 C735.993318,92.4552259 730.119749,94.4140231 723.854609,94.4140231 C710.541186,94.4140231 700.751904,83.8365184 700.751904,70.1249383 C700.751904,56.4133582 710.541186,46.227613 723.854609,46.227613 C732.077606,46.227613 738.342746,51.3204856 741.475316,56.8051176 L759.487594,47.4028913 C753.614025,37.217146 742.65003,27.4231602 723.854609,27.4231602 C699.185619,27.4231602 679.215485,43.8770564 679.215485,70.5166977 C679.215485,97.1563391 699.577191,113.610235 723.854609,113.610235 C737.951175,113.610235 749.306741,108.517363 757.529738,100.682174 L757.921309,99.8986551 C759.487594,98.3316174 760.270737,96.3728202 760.270737,94.0222636 L760.270737,64.2485468 L720.330468,64.2485468 L720.330468,64.2485468 Z M657.679065,28.990198 L656.11278,28.990198 C651.413925,29.3819574 647.889784,32.9077923 647.889784,37.6089055 L647.889784,74.434292 L614.214655,28.990198 L592.286664,28.990198 L592.286664,112.043198 L613.431512,112.043198 L613.431512,63.8567874 L648.672926,112.043198 L669.034632,112.043198 L669.034632,28.990198 L657.679065,28.990198 L657.679065,28.990198 Z M552.737966,28.990198 L525.719549,28.990198 L494.393848,112.043198 L518.671266,112.043198 L522.586979,99.8986551 L555.478965,99.8986551 L557.436822,106.166806 C558.611535,109.300881 561.744106,111.651438 565.659818,112.043198 L584.063668,112.043198 L552.737966,28.990198 L552.737966,28.990198 Z M528.852119,81.0942024 L539.424543,49.7534478 L549.605396,81.0942024 L528.852119,81.0942024 L528.852119,81.0942024 Z M452.495723,28.990198 L417.64588,28.990198 L417.64588,103.032731 C418.037452,107.733844 421.561593,111.651438 426.652019,111.651438 L452.495723,111.651438 C478.730997,111.651438 497.526418,95.9810608 497.526418,70.1249383 C497.134847,44.6605752 478.339426,28.990198 452.495723,28.990198 L452.495723,28.990198 Z M452.495723,92.8469853 L438.790729,92.8469853 L438.790729,47.4028913 L452.495723,47.4028913 C467.375431,47.4028913 475.206856,57.196877 475.206856,70.1249383 C475.206856,82.6612401 466.592288,92.8469853 452.495723,92.8469853 L452.495723,92.8469853 Z M391.019034,28.990198 L389.84432,28.990198 C385.145465,28.990198 381.621324,32.9077923 381.229753,37.6089055 L381.229753,74.434292 L347.554624,28.990198 L325.626633,28.990198 L325.626633,112.043198 L346.771481,112.043198 L346.771481,63.8567874 L382.012895,112.043198 L402.374601,112.043198 L402.374601,28.990198 L391.019034,28.990198 L391.019034,28.990198 Z M286.861078,28.990198 L259.451089,28.990198 L228.125388,112.043198 L253.185949,112.043198 L257.101662,99.8986551 L289.993648,99.8986551 L291.951504,106.166806 C293.517789,109.300881 296.258788,111.651438 300.174501,112.043198 L318.57835,112.043198 L286.861078,28.990198 Z M262.58366,81.0942024 L273.156084,49.7534478 L283.728508,81.0942024 L262.58366,81.0942024 L262.58366,81.0942024 Z M236.348385,47.0111318 L236.348385,28.5984385 L172.91384,28.5984385 L172.91384,111.651438 L195.624973,111.651438 L195.624973,82.2694807 L217.944535,82.2694807 C221.860248,81.8777213 224.992818,78.3518864 224.992818,74.434292 L224.992818,63.465028 L195.233402,63.465028 L195.233402,47.0111318 L236.348385,47.0111318 L236.348385,47.0111318 Z" id="FANDANGO_1_" fill="#3478C1"></path>
                <path d="M121.618004,39.1759432 L111.04558,0 L0.62248366,29.3819574 L11.1949078,68.5579006 C17.8516193,70.1249383 23.7251883,74.8260515 25.2914733,81.8777213 C27.2493296,88.929391 24.8999021,95.9810608 19.8094756,100.682174 L30.3818998,139.858117 L140.804996,110.47616 L130.232572,70.9084572 C123.575861,69.3414194 117.702292,64.6403063 116.136007,57.5886365 C114.17815,50.5369667 116.527578,43.4852969 121.618004,39.1759432 L121.618004,39.1759432 Z" id="Logo_1_" fill="#FF7300"></path>
                <path d="M80.8945929,40.3512215 L48.0026067,48.969929 L54.6593181,73.6507732 L87.5513044,65.0320657 L94.2080159,89.7129099 L61.3160296,98.3316174 L67.9727411,123.012462 L35.0807549,131.631169 L27.2493296,101.857452 C31.9481848,95.9810608 34.2976124,88.1458722 31.9481848,79.9189241 C29.5987572,72.0837355 24.1167595,66.207344 16.6769055,63.465028 L8.45390895,33.2995517 L74.2378814,15.6703773 L80.8945929,40.3512215 L80.8945929,40.3512215 Z" id="Shape" fill="#FFFFFF"></path>
                <path d="M870.693833,31.732514 C870.693833,32.9077923 870.302262,33.6913111 869.519119,34.8665894 C868.735977,35.6501083 867.952834,36.0418677 866.386549,36.0418677 C865.211835,36.0418677 864.428693,35.6501083 863.253979,34.8665894 C862.470837,34.0830706 862.079265,32.9077923 862.079265,31.732514 C862.079265,30.5572357 862.470837,29.3819574 863.253979,28.5984385 C864.037122,27.8149197 865.211835,27.4231602 866.386549,27.4231602 C867.561263,27.4231602 868.735977,27.8149197 869.519119,28.5984385 C870.302262,29.3819574 870.693833,30.5572357 870.693833,31.732514 Z M869.910691,31.732514 C869.910691,30.9489951 869.519119,29.7737168 869.127548,29.3819574 C868.344406,28.5984385 867.561263,28.5984385 866.386549,28.5984385 C865.211835,28.5984385 864.428693,28.990198 864.037122,29.3819574 C863.253979,30.1654763 863.253979,30.9489951 863.253979,31.732514 C863.253979,32.5160328 863.64555,33.6913111 864.037122,34.0830706 C864.428693,34.47483 865.603407,35.2583489 866.386549,35.2583489 C867.169692,35.2583489 868.344406,34.8665894 869.127548,34.0830706 C869.910691,33.6913111 869.910691,32.9077923 869.910691,31.732514 Z M867.561263,34.0830706 L866.386549,32.5160328 L865.603407,32.5160328 L865.603407,34.0830706 L864.820264,34.0830706 L864.820264,29.7737168 L867.952834,29.7737168 C867.952834,30.1654763 868.344406,30.1654763 868.344406,30.1654763 C868.344406,30.5572357 868.735977,30.5572357 868.735977,30.5572357 C868.735977,30.9489951 868.735977,31.3407545 868.344406,31.3407545 C868.344406,31.3407545 867.952834,31.732514 867.561263,31.732514 L868.735977,34.0830706 L867.561263,34.0830706 Z M867.561263,30.9489951 L867.561263,30.5572357 L867.169692,30.5572357 L867.169692,30.1654763 L866.386549,30.1654763 L866.386549,31.732514 L867.952834,31.732514 L867.561263,30.9489951 L867.561263,30.9489951 Z" id="Shape" fill="#3478C1"></path>
            </g>
        </g>
    </g>
</svg>